#define tool_rect_width 24
#define tool_rect_height 16
static unsigned char tool_rect_bits[] = {
   0x00, 0x00, 0x00, 0xee, 0xee, 0x6e, 0x00, 0x00, 0x40, 0x02, 0x00, 0x00,
   0x02, 0x00, 0x40, 0x02, 0x00, 0x40, 0x00, 0x00, 0x40, 0x02, 0x00, 0x00,
   0x02, 0x00, 0x40, 0x02, 0x00, 0x40, 0x00, 0x00, 0x40, 0x02, 0x00, 0x00,
   0x02, 0x00, 0x40, 0x02, 0x00, 0x40, 0xdc, 0xdd, 0x5d, 0x00, 0x00, 0x00};
