#define tool_line_width 24
#define tool_line_height 16
static unsigned char tool_line_bits[] = {
   0x00, 0x00, 0x00, 0x00, 0x00, 0x40, 0x00, 0x00, 0x30, 0x00, 0x00, 0x0c,
   0x00, 0x00, 0x02, 0x00, 0x80, 0x01, 0x00, 0x40, 0x00, 0x00, 0x30, 0x00,
   0x00, 0x0c, 0x00, 0x00, 0x02, 0x00, 0x80, 0x01, 0x00, 0x40, 0x00, 0x00,
   0x30, 0x00, 0x00, 0x0c, 0x00, 0x00, 0x02, 0x00, 0x00, 0x00, 0x00, 0x00};
